<?xml version="1.0" encoding="utf-8"?>
<!-- Generator: Adobe Illustrator 27.4.0, SVG Export Plug-In . SVG Version: 6.00 Build 0)  -->
<svg version="1.1" xmlns="http://www.w3.org/2000/svg" xmlns:xlink="http://www.w3.org/1999/xlink" x="0px" y="0px"
	 viewBox="0 0 1366 768" style="enable-background:new 0 0 1366 768;" xml:space="preserve">
<style type="text/css">
	.st0{fill:url(#SVGID_1_);}
	.st1{fill:url(#SVGID_00000065058854277700875620000003776167185829626504_);}
	.st2{fill:url(#SVGID_00000165201078727063843060000007600599432497544323_);}
	.st3{fill:#D13232;}
	.st4{fill-rule:evenodd;clip-rule:evenodd;fill:#FFFFFF;}
	.st5{fill:#FFFFFF;}
</style>
<g id="Слой_1">
	<path d="M224,375.3l0.3-0.1v76.2h-14.1v-68h-86.3v68h-4.2v-76H224z M296.8,375c28.3,0,52.4,10.5,52.4,38
		c0,28.8-25.6,38.3-52.4,38.3c-26.6,0-52.2-9.5-52.2-38.3C244.6,385.5,268.7,375,296.8,375z M323.2,438.4c7-6.3,11.5-15.6,11.5-25.2
		s-3.8-19.6-11-25.7c-7.2-6.3-17.4-8.8-26.9-8.8c-9.3,0-19.6,2.6-26.8,8.8s-11.1,16.1-11,25.7c-0.1,9.6,4.5,18.9,11.5,25.2
		c7.2,6.3,16.9,9.3,26.2,9.3C306.3,447.7,316,444.5,323.2,438.4z M431.7,403.2c21.8,2,53.9,17.7,36.5,35.6
		c-12.5,13.1-67.5,16.3-98.7,8.3v-71.8h95.7v8.1h-81.7v21.1C400.4,401.6,417,401.9,431.7,403.2z M413.9,447.2
		c28.8-0.1,44.9-9.3,41.5-22c-6.1-22-52.1-20.1-71.8-16.4v36.1C390.8,446.3,404.5,447.2,413.9,447.2z M591.2,383.3h-84.7v20.2h60.9
		v4.2h-60.9v35.5h84.7v8.2h-98.8v-76.2h98.8V383.3z M736.4,375.3l-44.2,30.3l44.2,45.8h-19.1l-40.8-43.6v43.6h-14.1v-43.6h-0.1
		l-40.8,43.6h-18.9l44-45.8l-44-30.3h7.6l41.6,28.3h10.8V381l14.1-5.8v28.3h10.8l41.6-28.3H736.4z M844.4,443.2h8.3v8.2H748.2v-8.2
		h7.8v-49.7c4.1-7.9,18.3-14.3,31-17c13.2-2.9,41.6-2.2,57.5,2.8V443.2z M767.9,393.6v49.7h64.6v-62.5
		C815.8,377.8,782,375.3,767.9,393.6z"/>
	<path d="M1233.2,375.1v76.2h-14.1v-36c-19.1,29.3-52,35.5-76.4,35.8v0.1h-14.1v-70.5l14.1-5.6v71.9c33-0.5,69.5-15.5,76.4-66.3
		L1233.2,375.1z M1212.4,356.1c0.4-0.3,0.6-0.4,1-0.6c-0.3,0.4-0.4,0.6-0.5,1c-0.3,0.4-0.4,0.6-0.5,1l-0.6,0.9
		c-0.1,0.3-0.2,0.4-0.4,0.5l-0.3,0.5c-0.2,0.3-0.5,0.6-0.8,0.9c-0.3,0.3-0.5,0.5-0.8,0.9c-0.3,0.3-0.5,0.5-0.8,0.8
		c-0.3,0.3-0.5,0.6-0.9,0.9c-2.2,2-4.9,3.8-7.7,5.2c-5.6,2.7-11.9,4-18.2,4s-12.6-1.3-18.2-4c-2.8-1.4-5.4-3.2-7.7-5.2
		c-0.2-0.3-0.6-0.5-0.9-0.9c-0.3-0.3-0.5-0.5-0.8-0.8c-0.3-0.4-0.5-0.6-0.8-0.9c-0.3-0.3-0.5-0.6-0.6-0.9l-0.4-0.5
		c-0.1-0.1-0.3-0.3-0.4-0.5l-0.5-0.9c-0.3-0.4-0.4-0.6-0.6-1c-0.1-0.4-0.3-0.6-0.4-1c0.2,0.1,0.6,0.4,0.9,0.6
		c0.4,0.1,0.6,0.4,0.9,0.5l1,0.5l0.4,0.4l0.5,0.3c0.4,0.1,0.6,0.3,1,0.4c0.3,0.3,0.6,0.4,0.9,0.5c0.4,0.1,0.6,0.3,0.9,0.5
		c0.4,0.1,0.8,0.3,1,0.4c2.6,1,5.1,1.9,7.8,2.6c5.2,1.3,10.5,1.9,15.9,1.9c5.4,0,10.8-0.6,16-1.9c2.6-0.6,5.1-1.5,7.7-2.6
		c0.4-0.1,0.6-0.3,1-0.4c0.3-0.1,0.6-0.4,0.9-0.5c0.4-0.1,0.6-0.3,1-0.4c0.3-0.3,0.6-0.4,0.9-0.5l0.5-0.3l0.4-0.3l1-0.6
		C1211.8,356.5,1212.2,356.2,1212.4,356.1z"/>
</g>
<g id="Слой_2">
	
		<linearGradient id="SVGID_1_" gradientUnits="userSpaceOnUse" x1="1035.2157" y1="361.0825" x2="1067.6233" y2="307.725" gradientTransform="matrix(1 0 0 -1 0 770)">
		<stop  offset="0" style="stop-color:#7D1D1D"/>
		<stop  offset="0.2067" style="stop-color:#951212"/>
		<stop  offset="0.5054" style="stop-color:#AA1616"/>
		<stop  offset="0.845" style="stop-color:#DE2121"/>
		<stop  offset="0.9899" style="stop-color:#EF2525"/>
	</linearGradient>
	<path class="st0" d="M1075.3,451.9h-33.5l-18.2-36.7l26.5-13.9L1075.3,451.9z"/>
	
		<linearGradient id="SVGID_00000141418342469682417380000006205919689600822934_" gradientUnits="userSpaceOnUse" x1="883.49" y1="335.7122" x2="1204.0393" y2="427.8701" gradientTransform="matrix(1 0 0 -1 0 770)">
		<stop  offset="1.385220e-07" style="stop-color:#951212"/>
		<stop  offset="0.1829" style="stop-color:#B51D1D"/>
		<stop  offset="0.4868" style="stop-color:#B81919"/>
		<stop  offset="0.8722" style="stop-color:#E12222"/>
		<stop  offset="0.9899" style="stop-color:#EF2525"/>
	</linearGradient>
	<path style="fill:url(#SVGID_00000141418342469682417380000006205919689600822934_);" d="M1244,286.7l-197.3,103.7l-26.5,13.9
		l-94.3,49.6l-50.7,26.6c-3.7,1.9-7.5-2.3-5.2-5.8l13.8-20.9l27.4-41.6l95.1-36l28.2-10.6L1244,286.7z"/>
	
		<linearGradient id="SVGID_00000114072012855968197120000009859491617395106486_" gradientUnits="userSpaceOnUse" x1="972.8246" y1="484.4007" x2="972.8246" y2="357.6835" gradientTransform="matrix(1 0 0 -1 0 770)">
		<stop  offset="0" style="stop-color:#D72020"/>
		<stop  offset="1" style="stop-color:#820F0F"/>
	</linearGradient>
	<path style="fill:url(#SVGID_00000114072012855968197120000009859491617395106486_);" d="M1034.5,365.7l-28.2,10.6l-95.1,36
		l64.4-97.8l15.2-23.1c1.7-2.6,5.6-2.4,6.9,0.4L1034.5,365.7z"/>
	<path class="st3" d="M1228.1,293.6l-5.5,19.5l23-27.1h-36.2L1228.1,293.6z"/>
	<path class="st4" d="M942.4,444.2c1.1-0.1,2.3-0.2,3.6-0.3l-3.5,1.8h-0.1V444.2z"/>
	<path class="st4" d="M942.4,441.1c3.1-0.3,7.1-1.1,11.4-1.4l-3.7,2h0c-2.9,0.4-5.6,0.9-7.7,0.9V441.1z"/>
	<path class="st4" d="M970.5,422v14.3h-2.9v-4.2l-11.8,6.2v-0.9c-5.4,0-10.1,1.5-13.3,1.6l0.1-1.6c3.3-0.3,8.1-1.6,13.2-1.6v-1.8
		c-5.5,0-10.2,1.8-13.2,1.9l0.1-1.7c3.2-0.5,8-2,13.2-1.9c0-0.6,0.1-1.1,0.1-1.7c-5.6,0-10.4,2-13.2,2.2l0.1-1.7
		c3.1-0.5,7.9-2.2,13.2-2.1c0-0.6,0.1-1.1,0.1-1.7c-5.8,0-10.6,2.2-13.2,2.5c0.1-0.6,0.1-1.2,0.1-1.8c2.9-0.7,7.8-2.5,13.1-2.4
		c0-0.6,0.1-1.1,0.1-1.7c-5.8,0-10.6,2.4-13.1,2.8c0.1-0.7,0.1-1.3,0.1-1.9c2.8-0.8,7.6-2.7,13-2.6c0-0.6,0.1-1.1,0.1-1.7
		c-5.9,0-10.7,2.5-13.1,3.1c0-0.6,0.1-1.3,0.1-1.9c2.8-0.9,7.6-2.9,13-2.8c0-0.6,0.1-1,0.1-1.6c-5.9,0-10.6,2.6-13,3.3
		c0-0.7,0.1-1.3,0.1-2c2.7-1,7.5-3.1,12.9-3c0-0.6,0.1-1,0.1-1.6c-5.8,0-10.6,2.6-12.9,3.5c0-0.6,0.1-1.3,0.1-2
		c2.6-1,7.4-3.2,12.8-3.1c0-0.6,0.1-1,0.1-1.6c-5.8,0-10.5,2.6-12.8,3.7c0-0.7,0.1-1.4,0.1-2.1c2.6-1.2,7.4-3.4,12.7-3.3
		c0-0.6,0.1-1,0.1-1.6c-5.8,0-10.5,2.6-12.8,3.8c0-0.7,0.1-1.4,0.1-2.1c2.6-1.3,7.3-3.5,12.6-3.4c0-0.6,0.1-0.9,0.1-1.5
		c-5.6,0-10.2,2.5-12.6,3.9c0-0.7,0.1-1.4,0.1-2.1c2.5-1.4,7.2-3.6,12.4-3.5c0-0.6,0.1-0.9,0.1-1.5c-5.6,0-10.1,2.5-12.5,4
		c0-0.8,0.1-1.5,0.1-2.2c2.6-1.5,7.2-3.6,12.3-3.5c0-0.6,0.1-0.9,0.1-1.5c-5.5,0-9.9,2.4-12.4,4c0.1-0.8,0.1-1.5,0.2-2.2
		c2.6-1.5,7.1-3.6,12.1-3.5c0-0.6,0.2-0.9,0.2-1.5c-5.3,0-9.7,2.3-12.2,4c0.1-0.8,0.1-1.5,0.2-2.2c2.7-1.6,7.1-3.6,12-3.5
		c0-0.5,0.2-0.8,0.2-1.4c-5.2,0-9.4,2.2-12,3.9c0.1-0.7,0.1-1.4,0.2-2.1c2.7-1.7,7-3.6,11.8-3.5c0-0.6,0.2-0.8,0.2-1.4
		c-5,0-9.2,2-11.8,3.8c0.1-0.7,0.1-1.4,0.2-2.1c2.6-1.7,6.8-3.5,11.5-3.4c0-0.6,0.2-0.8,0.2-1.4c-4.9,0-9,1.9-11.6,3.7
		c0.1-1.8,0.3-3.6,0.5-5.4c5.6-5.6,7.3-5.3,13.7-5.3v6.3l4.5,3.4v9.4l2.3,2.2v20.5l1.9,0.8L970.5,422z"/>
	<path class="st5" d="M1004.6,374.3v-9.2l-7.8-5.4h-0.1l-12.7,5.6v9.2l-7.4,2.9v46.2H975v-44.1h-6.3v44.1h-1.1c0,0,0.1,8.3,0.2,8.2
		c0.3-0.1,0.5-0.2,0.8-0.3c0.4-0.6,1.2-0.9,1.9-1.1c0,0,0.1,0,0.1,0l0,0c0,0,0,0,0,0c0,0,0,0,0,0l17.7-9.3v-1.9
		c0.9-0.2,1.8-0.4,2.8-0.5v0.9l2.3-1.2v-0.4l1.2-0.2l3.3-1.7l-1-0.2v-2.6l2.8,0.6v1.2l3.8-2c-0.5-0.1-1-0.2-1.5-0.3v-2.4
		c0.9,0.2,1.8,0.5,2.8,0.6v1.3l3.8-2c-0.7-0.2-1.4-0.4-2.1-0.5v-2.2c0.8,0.2,1.7,0.5,2.6,0.6v1.9l1.1-0.6v-32.3L1004.6,374.3z
		 M974.8,423.7h-4.8v-1.3h4.8V423.7z M974.8,419.7h-4.8v-1.4h4.8V419.7z M974.8,415.6h-4.8v-1.4h4.8V415.6z M974.8,411.4h-4.8v-1.4
		h4.8V411.4z M974.8,407.3h-4.8V406h4.8V407.3z M974.8,403.2h-4.8v-1.4h4.8V403.2z M974.8,399.1h-4.8v-1.4h4.8V399.1z M974.8,395
		h-4.8v-1.4h4.8V395z M974.8,390.9h-4.8v-1.4h4.8V390.9z M974.8,386.8h-4.8v-1.4h4.8V386.8z M974.8,382.7h-4.8v-1.4h4.8V382.7z
		 M979.2,423.4c-0.6,0.1-1.2,0.3-1.7,0.4h-0.4V422c0.7-0.2,1.4-0.3,2.1-0.4V423.4z M979.2,419.5c-0.7,0.2-1.4,0.3-2.1,0.4v-1.8
		c0.7-0.2,1.4-0.3,2.1-0.5V419.5z M979.2,415.7c-0.7,0.2-1.4,0.4-2.1,0.5v-1.8c0.7-0.2,1.4-0.4,2.1-0.5V415.7z M979.2,411.7
		c-0.7,0.2-1.4,0.4-2.1,0.5v-1.8c0.7-0.2,1.4-0.4,2.1-0.5V411.7z M979.2,407.9c-0.7,0.2-1.4,0.4-2.1,0.5v-1.8
		c0.7-0.2,1.4-0.4,2.1-0.5V407.9z M979.2,404c-0.7,0.2-1.4,0.4-2.1,0.6v-1.8c0.7-0.2,1.4-0.4,2.1-0.6V404z M979.2,400.1
		c-0.7,0.2-1.4,0.5-2.1,0.6v-1.8c0.7-0.2,1.4-0.5,2.1-0.6V400.1z M979.2,396.2c-0.7,0.2-1.4,0.4-2.1,0.7v-1.8
		c0.7-0.2,1.4-0.4,2.1-0.7V396.2z M979.2,392.3c-0.7,0.3-1.4,0.5-2.1,0.7v-1.8c0.7-0.3,1.4-0.5,2.1-0.7V392.3z M979.2,388.5
		c-0.7,0.3-1.4,0.5-2.1,0.7v-1.8c0.7-0.3,1.4-0.5,2.1-0.7V388.5z M979.3,384.6l-2.2,0.7v-1.7l2.2-0.8V384.6z M982.7,422.8
		c-0.8,0.2-1.6,0.3-2.4,0.5v-2c0.8-0.2,1.6-0.3,2.4-0.5V422.8z M982.7,418.8c-0.8,0.2-1.6,0.4-2.4,0.5v-2c0.8-0.2,1.6-0.4,2.4-0.5
		V418.8z M982.7,414.9c-0.8,0.2-1.6,0.4-2.4,0.5v-2c0.8-0.2,1.6-0.4,2.4-0.5V414.9z M982.7,410.9c-0.8,0.2-1.6,0.4-2.4,0.6v-2
		c0.8-0.2,1.6-0.4,2.4-0.6V410.9z M982.7,407c-0.8,0.2-1.6,0.5-2.4,0.6v-2c0.8-0.2,1.6-0.5,2.4-0.6V407z M982.7,403.1
		c-0.8,0.2-1.6,0.4-2.4,0.6v-2c0.8-0.2,1.6-0.5,2.4-0.6V403.1z M982.7,399.1c-0.8,0.3-1.6,0.5-2.4,0.7v-2c0.8-0.3,1.6-0.5,2.4-0.7
		V399.1z M982.7,395.2c-0.8,0.3-1.6,0.5-2.4,0.7v-2c0.8-0.3,1.6-0.5,2.4-0.7V395.2z M982.7,391.3c-0.8,0.3-1.6,0.5-2.4,0.8v-2
		c0.8-0.3,1.6-0.5,2.4-0.8V391.3z M982.7,387.3c-0.8,0.3-1.6,0.5-2.4,0.8v-2c0.8-0.3,1.6-0.5,2.4-0.8V387.3z M982.7,383.3
		c-0.8,0.3-1.6,0.5-2.4,0.9v-2c0.8-0.3,1.6-0.5,2.4-0.9V383.3z M986.5,422c-0.8,0.2-1.8,0.4-2.6,0.5v-2.2c0.8-0.2,1.7-0.4,2.6-0.5
		V422z M986.5,418c-0.8,0.2-1.8,0.4-2.6,0.5v-2.2c0.8-0.2,1.7-0.4,2.6-0.5V418z M986.5,414c-0.8,0.2-1.8,0.4-2.6,0.6v-2.2
		c0.8-0.2,1.7-0.4,2.6-0.6V414z M986.5,410.1c-0.8,0.2-1.8,0.5-2.6,0.6v-2.2c0.8-0.2,1.7-0.5,2.6-0.6V410.1z M986.5,406
		c-0.8,0.3-1.8,0.5-2.6,0.7v-2.2c0.8-0.3,1.7-0.5,2.6-0.7V406z M986.5,402c-0.8,0.3-1.8,0.4-2.6,0.7v-2.2c0.8-0.3,1.7-0.5,2.6-0.7
		V402z M986.5,398c-0.8,0.3-1.8,0.5-2.6,0.8v-2.2c0.8-0.3,1.7-0.5,2.6-0.8V398z M986.5,394c-0.8,0.3-1.8,0.5-2.6,0.8v-2.2
		c0.8-0.3,1.7-0.5,2.6-0.8V394z M986.5,390c-0.8,0.3-1.8,0.5-2.6,0.9v-2.2c0.8-0.3,1.7-0.5,2.6-0.9V390z M986.5,386
		c-0.8,0.3-1.8,0.6-2.6,0.9v-2.2c0.8-0.3,1.7-0.6,2.6-0.9V386z M986.5,381.9c-0.8,0.4-1.8,0.6-2.6,1v-2.2c0.8-0.4,1.7-0.6,2.6-1
		V381.9z M991.1,417.1c-0.9,0.2-1.8,0.4-2.8,0.6v-2.4c0.9-0.2,1.8-0.4,2.8-0.6V417.1z M991.1,413.1c-0.9,0.2-1.8,0.5-2.8,0.6v-2.4
		c0.9-0.2,1.8-0.5,2.8-0.6V413.1z M991.1,408.9c-0.9,0.3-1.8,0.4-2.8,0.7v-2.4c0.9-0.3,1.8-0.4,2.8-0.7V408.9z M991.1,404.9
		c-0.9,0.3-1.8,0.5-2.8,0.7v-2.4c0.9-0.3,1.8-0.5,2.8-0.7V404.9z M991.1,400.8c-0.9,0.3-1.8,0.5-2.8,0.8v-2.4
		c0.9-0.3,1.8-0.5,2.8-0.8V400.8z M991.1,396.7c-0.9,0.3-1.8,0.5-2.8,0.8v-2.4c0.9-0.3,1.8-0.5,2.8-0.8V396.7z M991.1,392.6
		c-0.9,0.3-1.8,0.6-2.8,0.9v-2.4c0.9-0.3,1.8-0.6,2.8-0.9V392.6z M991.1,388.5c-0.9,0.3-1.8,0.6-2.8,0.9V387
		c0.9-0.3,1.8-0.6,2.8-0.9V388.5z M991.1,384.4c-0.9,0.4-1.8,0.6-2.8,1V383c0.9-0.4,1.8-0.6,2.8-1V384.4z M991.1,380.3
		c-0.9,0.4-1.8,0.7-2.8,1.1V379c0.9-0.4,1.8-0.7,2.8-1.1V380.3z M996.4,416l-3,0.6v-2.6l3-0.6V416z M996.4,411.8l-3,0.7V410l3-0.7
		V411.8z M996.4,407.6l-3,0.7v-2.6l3-0.7V407.6z M996.4,403.4l-3,0.8v-2.6l3-0.8V403.4z M996.4,399.3l-3,0.8v-2.6l3-0.8V399.3z
		 M996.4,395.1l-3,0.9v-2.6l3-0.9V395.1z M996.4,390.9l-3,1v-2.6l3-1V390.9z M996.4,386.7l-3,1v-2.6l3-1V386.7z M996.4,382.6l-3,1
		V381l3-1.1V382.6z M996.4,378.4l-3,1.1v-2.6l3-1.1V378.4z M999.5,412.5l-2.8-0.6v-2.7l2.8,0.7V412.5z M999.5,408.3l-2.8-0.6v-2.6
		l2.8,0.6V408.3z M999.5,404.2l-2.8-0.7v-2.6l2.8,0.7V404.2z M999.5,400.1l-2.8-0.8v-2.6l2.8,0.8V400.1z M999.5,396l-2.8-0.8v-2.6
		l2.8,0.8V396z M999.5,391.9l-2.8-0.9v-2.6l2.8,0.9V391.9z M999.5,387.7l-2.8-0.9v-2.6l2.8,0.9V387.7z M999.5,383.6l-2.8-1V380
		l2.8,1V383.6z M999.5,379.5l-2.8-1v-2.6l2.8,1V379.5z M1004.8,409.7c-0.9-0.3-1.9-0.5-2.8-0.7v-2.4c0.9,0.3,1.8,0.5,2.8,0.7V409.7z
		 M1004.8,405.6c-0.9-0.3-1.9-0.5-2.8-0.7v-2.4c0.9,0.3,1.8,0.6,2.8,0.7V405.6z M1004.8,401.6c-0.9-0.3-1.9-0.5-2.8-0.8v-2.4
		c0.9,0.3,1.8,0.5,2.8,0.8V401.6z M1004.8,397.5c-0.9-0.3-1.9-0.5-2.8-0.8v-2.4c0.9,0.3,1.8,0.5,2.8,0.8V397.5z M1004.8,393.5
		c-0.9-0.3-1.9-0.6-2.8-0.9v-2.4c0.9,0.3,1.8,0.6,2.8,0.9V393.5z M1004.8,389.4c-0.9-0.4-1.9-0.6-2.8-0.9v-2.4
		c0.9,0.4,1.8,0.6,2.8,0.9V389.4z M1004.8,385.4c-0.9-0.4-1.9-0.6-2.8-1V382c0.9,0.4,1.8,0.6,2.8,1V385.4z M1004.8,381.4
		c-0.9-0.4-1.8-0.7-2.8-1.1v-2.4c0.9,0.4,1.8,0.7,2.8,1.1V381.4z M1009,406.8c-0.8-0.3-1.7-0.5-2.6-0.7v-2.2
		c0.8,0.3,1.7,0.5,2.6,0.7V406.8z M1009,402.8c-0.8-0.3-1.7-0.5-2.6-0.7v-2.2c0.8,0.3,1.7,0.5,2.6,0.7V402.8z M1009,398.8
		c-0.8-0.3-1.7-0.5-2.6-0.8v-2.2c0.8,0.3,1.7,0.5,2.6,0.8V398.8z M1009,394.8c-0.8-0.3-1.7-0.5-2.6-0.8v-2.2
		c0.8,0.3,1.7,0.5,2.6,0.8V394.8z M1009,390.9c-0.8-0.3-1.7-0.5-2.6-0.9v-2.2c0.8,0.3,1.7,0.5,2.6,0.9V390.9z M1009,386.9
		c-0.8-0.3-1.7-0.6-2.6-0.9v-2.2c0.8,0.3,1.7,0.6,2.6,0.9V386.9z M1009,382.9c-0.8-0.4-1.7-0.6-2.6-1v-2.2c0.8,0.4,1.7,0.6,2.6,1
		V382.9z"/>
	<polygon class="st5" points="1016.4,376.1 1015.2,373.4 1013,378.7 1017.5,378.7 	"/>
	<polygon class="st5" points="972.4,376.1 971.3,373.4 969.1,378.7 973.6,378.7 	"/>
	<path class="st5" d="M1011.6,379.6v29.3l2.8-1.5h-2.6V406h4.8v0.2l1.4-0.7v-25.9H1011.6z M1016.5,403.2h-4.8v-1.4h4.8V403.2z
		 M1016.5,399.1h-4.8v-1.4h4.8V399.1z M1016.5,395h-4.8v-1.4h4.8V395z M1016.5,390.9h-4.8v-1.4h4.8V390.9z M1016.5,386.8h-4.8v-1.4
		h4.8V386.8z M1016.5,382.7h-4.8v-1.4h4.8V382.7z"/>
</g>
</svg>
