<svg width="1366" height="768" viewBox="0 0 1366 768" fill="none" xmlns="http://www.w3.org/2000/svg">
<path d="M224 375.3L224.3 375.2V451.4H210.2V383.4H123.9V451.4H119.7V375.4H224V375.3ZM296.8 375C325.1 375 349.2 385.5 349.2 413C349.2 441.8 323.6 451.3 296.8 451.3C270.2 451.3 244.6 441.8 244.6 413C244.6 385.5 268.7 375 296.8 375ZM323.2 438.4C330.2 432.1 334.7 422.8 334.7 413.2C334.7 403.6 330.9 393.6 323.7 387.5C316.5 381.2 306.3 378.7 296.8 378.7C287.5 378.7 277.2 381.3 270 387.5C262.8 393.7 258.9 403.6 259 413.2C258.9 422.8 263.5 432.1 270.5 438.4C277.7 444.7 287.4 447.7 296.7 447.7C306.3 447.7 316 444.5 323.2 438.4ZM431.7 403.2C453.5 405.2 485.6 420.9 468.2 438.8C455.7 451.9 400.7 455.1 369.5 447.1V375.3H465.2V383.4H383.5V404.5C400.4 401.6 417 401.9 431.7 403.2ZM413.9 447.2C442.7 447.1 458.8 437.9 455.4 425.2C449.3 403.2 403.3 405.1 383.6 408.8V444.9C390.8 446.3 404.5 447.2 413.9 447.2ZM591.2 383.3H506.5V403.5H567.4V407.7H506.5V443.2H591.2V451.4H492.4V375.2H591.2V383.3ZM736.4 375.3L692.2 405.6L736.4 451.4H717.3L676.5 407.8V451.4H662.4V407.8H662.3L621.5 451.4H602.6L646.6 405.6L602.6 375.3H610.2L651.8 403.6H662.6V381L676.7 375.2V403.5H687.5L729.1 375.2H736.4V375.3ZM844.4 443.2H852.7V451.4H748.2V443.2H756V393.5C760.1 385.6 774.3 379.2 787 376.5C800.2 373.6 828.6 374.3 844.5 379.3V443.2H844.4ZM767.9 393.6V443.3H832.5V380.8C815.8 377.8 782 375.3 767.9 393.6Z" fill="white"/>
<path d="M1233.2 375.1V451.3H1219.1V415.3C1200 444.6 1167.1 450.8 1142.7 451.1V451.2H1128.6V380.7L1142.7 375.1V447C1175.7 446.5 1212.2 431.5 1219.1 380.7L1233.2 375.1ZM1212.4 356.1C1212.8 355.8 1213 355.7 1213.4 355.5C1213.1 355.9 1213 356.1 1212.9 356.5C1212.6 356.9 1212.5 357.1 1212.4 357.5L1211.8 358.4C1211.7 358.7 1211.6 358.8 1211.4 358.9L1211.1 359.4C1210.9 359.7 1210.6 360 1210.3 360.3C1210 360.6 1209.8 360.8 1209.5 361.2C1209.2 361.5 1209 361.7 1208.7 362C1208.4 362.3 1208.2 362.6 1207.8 362.9C1205.6 364.9 1202.9 366.7 1200.1 368.1C1194.5 370.8 1188.2 372.1 1181.9 372.1C1175.6 372.1 1169.3 370.8 1163.7 368.1C1160.9 366.7 1158.3 364.9 1156 362.9C1155.8 362.6 1155.4 362.4 1155.1 362C1154.8 361.7 1154.6 361.5 1154.3 361.2C1154 360.8 1153.8 360.6 1153.5 360.3C1153.2 360 1153 359.7 1152.9 359.4L1152.5 358.9C1152.4 358.8 1152.2 358.6 1152.1 358.4L1151.6 357.5C1151.3 357.1 1151.2 356.9 1151 356.5C1150.9 356.1 1150.7 355.9 1150.6 355.5C1150.8 355.6 1151.2 355.9 1151.5 356.1C1151.9 356.2 1152.1 356.5 1152.4 356.6L1153.4 357.1L1153.8 357.5L1154.3 357.8C1154.7 357.9 1154.9 358.1 1155.3 358.2C1155.6 358.5 1155.9 358.6 1156.2 358.7C1156.6 358.8 1156.8 359 1157.1 359.2C1157.5 359.3 1157.9 359.5 1158.1 359.6C1160.7 360.6 1163.2 361.5 1165.9 362.2C1171.1 363.5 1176.4 364.1 1181.8 364.1C1187.2 364.1 1192.6 363.5 1197.8 362.2C1200.4 361.6 1202.9 360.7 1205.5 359.6C1205.9 359.5 1206.1 359.3 1206.5 359.2C1206.8 359.1 1207.1 358.8 1207.4 358.7C1207.8 358.6 1208 358.4 1208.4 358.3C1208.7 358 1209 357.9 1209.3 357.8L1209.8 357.5L1210.2 357.2L1211.2 356.6C1211.8 356.5 1212.2 356.2 1212.4 356.1Z" fill="white"/>
<path d="M1075.3 451.9H1041.8L1023.6 415.2L1050.1 401.3L1075.3 451.9Z" fill="url(#paint0_linear_488_836)"/>
<path d="M1244 286.7L1046.7 390.4L1020.2 404.3L925.9 453.9L875.2 480.5C871.5 482.4 867.7 478.2 870 474.7L883.8 453.8L911.2 412.2L1006.3 376.2L1034.5 365.6L1244 286.7Z" fill="url(#paint1_linear_488_836)"/>
<path d="M1034.5 365.7L1006.3 376.3L911.2 412.3L975.6 314.5L990.8 291.4C992.5 288.8 996.4 289 997.7 291.8L1034.5 365.7Z" fill="url(#paint2_linear_488_836)"/>
<path d="M1228.1 293.6L1222.6 313.1L1245.6 286H1209.4L1228.1 293.6Z" fill="#D13232"/>
<path fill-rule="evenodd" clip-rule="evenodd" d="M942.4 444.2C943.5 444.1 944.7 444 946 443.9L942.5 445.7H942.4V444.2Z" fill="white"/>
<path fill-rule="evenodd" clip-rule="evenodd" d="M942.4 441.1C945.5 440.8 949.5 440 953.8 439.7L950.1 441.7C947.2 442.1 944.5 442.6 942.4 442.6V441.1Z" fill="white"/>
<path fill-rule="evenodd" clip-rule="evenodd" d="M970.5 422V436.3H967.6V432.1L955.8 438.3V437.4C950.4 437.4 945.7 438.9 942.5 439L942.6 437.4C945.9 437.1 950.7 435.8 955.8 435.8V434C950.3 434 945.6 435.8 942.6 435.9L942.7 434.2C945.9 433.7 950.7 432.2 955.9 432.3C955.9 431.7 956 431.2 956 430.6C950.4 430.6 945.6 432.6 942.8 432.8L942.9 431.1C946 430.6 950.8 428.9 956.1 429C956.1 428.4 956.2 427.9 956.2 427.3C950.4 427.3 945.6 429.5 943 429.8C943.1 429.2 943.1 428.6 943.1 428C946 427.3 950.9 425.5 956.2 425.6C956.2 425 956.3 424.5 956.3 423.9C950.5 423.9 945.7 426.3 943.2 426.7C943.3 426 943.3 425.4 943.3 424.8C946.1 424 950.9 422.1 956.3 422.2C956.3 421.6 956.4 421.1 956.4 420.5C950.5 420.5 945.7 423 943.3 423.6C943.3 423 943.4 422.3 943.4 421.7C946.2 420.8 951 418.8 956.4 418.9C956.4 418.3 956.5 417.9 956.5 417.3C950.6 417.3 945.9 419.9 943.5 420.6C943.5 419.9 943.6 419.3 943.6 418.6C946.3 417.6 951.1 415.5 956.5 415.6C956.5 415 956.6 414.6 956.6 414C950.8 414 946 416.6 943.7 417.5C943.7 416.9 943.8 416.2 943.8 415.5C946.4 414.5 951.2 412.3 956.6 412.4C956.6 411.8 956.7 411.4 956.7 410.8C950.9 410.8 946.2 413.4 943.9 414.5C943.9 413.8 944 413.1 944 412.4C946.6 411.2 951.4 409 956.7 409.1C956.7 408.5 956.8 408.1 956.8 407.5C951 407.5 946.3 410.1 944 411.3C944 410.6 944.1 409.9 944.1 409.2C946.7 407.9 951.4 405.7 956.7 405.8C956.7 405.2 956.8 404.9 956.8 404.3C951.2 404.3 946.6 406.8 944.2 408.2C944.2 407.5 944.3 406.8 944.3 406.1C946.8 404.7 951.5 402.5 956.7 402.6C956.7 402 956.8 401.7 956.8 401.1C951.2 401.1 946.7 403.6 944.3 405.1C944.3 404.3 944.4 403.6 944.4 402.9C947 401.4 951.6 399.3 956.7 399.4C956.7 398.8 956.8 398.5 956.8 397.9C951.3 397.9 946.9 400.3 944.4 401.9C944.5 401.1 944.5 400.4 944.6 399.7C947.2 398.2 951.7 396.1 956.7 396.2C956.7 395.6 956.9 395.3 956.9 394.7C951.6 394.7 947.2 397 944.7 398.7C944.8 397.9 944.8 397.2 944.9 396.5C947.6 394.9 952 392.9 956.9 393C956.9 392.5 957.1 392.2 957.1 391.6C951.9 391.6 947.7 393.8 945.1 395.5C945.2 394.8 945.2 394.1 945.3 393.4C948 391.7 952.3 389.8 957.1 389.9C957.1 389.3 957.3 389.1 957.3 388.5C952.3 388.5 948.1 390.5 945.5 392.3C945.6 391.6 945.6 390.9 945.7 390.2C948.3 388.5 952.5 386.7 957.2 386.8C957.2 386.2 957.4 386 957.4 385.4C952.5 385.4 948.4 387.3 945.8 389.1C945.9 387.3 946.1 385.5 946.3 383.7C951.9 378.1 953.6 378.4 960 378.4V384.7L964.5 388.1V397.5L966.8 399.7V420.2L968.7 421L970.5 422Z" fill="white"/>
<path d="M1004.6 374.3V365.1L996.801 359.7H996.701L984.001 365.3V374.5L976.601 377.4V423.6H975.001V379.5H968.701V423.6H967.601C967.601 423.6 967.701 431.9 967.801 431.8C968.101 431.7 968.301 431.6 968.601 431.5C969.001 430.9 969.801 430.6 970.501 430.4H970.601L988.301 421.1V419.2C989.201 419 990.101 418.8 991.101 418.7V419.6L993.401 418.4V418L994.601 417.8L997.901 416.1L996.901 415.9V413.3L999.701 413.9V415.1L1003.5 413.1C1003 413 1002.5 412.9 1002 412.8V410.4C1002.9 410.6 1003.8 410.9 1004.8 411V412.3L1008.6 410.3C1007.9 410.1 1007.2 409.9 1006.5 409.8V407.6C1007.3 407.8 1008.2 408.1 1009.1 408.2V410.1L1010.2 409.5V377.2L1004.6 374.3ZM974.801 423.7H970.001V422.4H974.801V423.7ZM974.801 419.7H970.001V418.3H974.801V419.7ZM974.801 415.6H970.001V414.2H974.801V415.6ZM974.801 411.4H970.001V410H974.801V411.4ZM974.801 407.3H970.001V406H974.801V407.3ZM974.801 403.2H970.001V401.8H974.801V403.2ZM974.801 399.1H970.001V397.7H974.801V399.1ZM974.801 395H970.001V393.6H974.801V395ZM974.801 390.9H970.001V389.5H974.801V390.9ZM974.801 386.8H970.001V385.4H974.801V386.8ZM974.801 382.7H970.001V381.3H974.801V382.7ZM979.201 423.4C978.601 423.5 978.001 423.7 977.501 423.8H977.101V422C977.801 421.8 978.501 421.7 979.201 421.6V423.4ZM979.201 419.5C978.501 419.7 977.801 419.8 977.101 419.9V418.1C977.801 417.9 978.501 417.8 979.201 417.6V419.5ZM979.201 415.7C978.501 415.9 977.801 416.1 977.101 416.2V414.4C977.801 414.2 978.501 414 979.201 413.9V415.7ZM979.201 411.7C978.501 411.9 977.801 412.1 977.101 412.2V410.4C977.801 410.2 978.501 410 979.201 409.9V411.7ZM979.201 407.9C978.501 408.1 977.801 408.3 977.101 408.4V406.6C977.801 406.4 978.501 406.2 979.201 406.1V407.9ZM979.201 404C978.501 404.2 977.801 404.4 977.101 404.6V402.8C977.801 402.6 978.501 402.4 979.201 402.2V404ZM979.201 400.1C978.501 400.3 977.801 400.6 977.101 400.7V398.9C977.801 398.7 978.501 398.4 979.201 398.3V400.1ZM979.201 396.2C978.501 396.4 977.801 396.6 977.101 396.9V395.1C977.801 394.9 978.501 394.7 979.201 394.4V396.2ZM979.201 392.3C978.501 392.6 977.801 392.8 977.101 393V391.2C977.801 390.9 978.501 390.7 979.201 390.5V392.3ZM979.201 388.5C978.501 388.8 977.801 389 977.101 389.2V387.4C977.801 387.1 978.501 386.9 979.201 386.7V388.5ZM979.301 384.6L977.101 385.3V383.6L979.301 382.8V384.6ZM982.701 422.8C981.901 423 981.101 423.1 980.301 423.3V421.3C981.101 421.1 981.901 421 982.701 420.8V422.8ZM982.701 418.8C981.901 419 981.101 419.2 980.301 419.3V417.3C981.101 417.1 981.901 416.9 982.701 416.8V418.8ZM982.701 414.9C981.901 415.1 981.101 415.3 980.301 415.4V413.4C981.101 413.2 981.901 413 982.701 412.9V414.9ZM982.701 410.9C981.901 411.1 981.101 411.3 980.301 411.5V409.5C981.101 409.3 981.901 409.1 982.701 408.9V410.9ZM982.701 407C981.901 407.2 981.101 407.5 980.301 407.6V405.6C981.101 405.4 981.901 405.1 982.701 405V407ZM982.701 403.1C981.901 403.3 981.101 403.5 980.301 403.7V401.7C981.101 401.5 981.901 401.2 982.701 401.1V403.1ZM982.701 399.1C981.901 399.4 981.101 399.6 980.301 399.8V397.8C981.101 397.5 981.901 397.3 982.701 397.1V399.1ZM982.701 395.2C981.901 395.5 981.101 395.7 980.301 395.9V393.9C981.101 393.6 981.901 393.4 982.701 393.2V395.2ZM982.701 391.3C981.901 391.6 981.101 391.8 980.301 392.1V390.1C981.101 389.8 981.901 389.6 982.701 389.3V391.3ZM982.701 387.3C981.901 387.6 981.101 387.8 980.301 388.1V386.1C981.101 385.8 981.901 385.6 982.701 385.3V387.3ZM982.701 383.3C981.901 383.6 981.101 383.8 980.301 384.2V382.2C981.101 381.9 981.901 381.7 982.701 381.3V383.3ZM986.501 422C985.701 422.2 984.701 422.4 983.901 422.5V420.3C984.701 420.1 985.601 419.9 986.501 419.8V422ZM986.501 418C985.701 418.2 984.701 418.4 983.901 418.5V416.3C984.701 416.1 985.601 415.9 986.501 415.8V418ZM986.501 414C985.701 414.2 984.701 414.4 983.901 414.6V412.4C984.701 412.2 985.601 412 986.501 411.8V414ZM986.501 410.1C985.701 410.3 984.701 410.6 983.901 410.7V408.5C984.701 408.3 985.601 408 986.501 407.9V410.1ZM986.501 406C985.701 406.3 984.701 406.5 983.901 406.7V404.5C984.701 404.2 985.601 404 986.501 403.8V406ZM986.501 402C985.701 402.3 984.701 402.4 983.901 402.7V400.5C984.701 400.2 985.601 400 986.501 399.8V402ZM986.501 398C985.701 398.3 984.701 398.5 983.901 398.8V396.6C984.701 396.3 985.601 396.1 986.501 395.8V398ZM986.501 394C985.701 394.3 984.701 394.5 983.901 394.8V392.6C984.701 392.3 985.601 392.1 986.501 391.8V394ZM986.501 390C985.701 390.3 984.701 390.5 983.901 390.9V388.7C984.701 388.4 985.601 388.2 986.501 387.8V390ZM986.501 386C985.701 386.3 984.701 386.6 983.901 386.9V384.7C984.701 384.4 985.601 384.1 986.501 383.8V386ZM986.501 381.9C985.701 382.3 984.701 382.5 983.901 382.9V380.7C984.701 380.3 985.601 380.1 986.501 379.7V381.9ZM991.101 417.1C990.201 417.3 989.301 417.5 988.301 417.7V415.3C989.201 415.1 990.101 414.9 991.101 414.7V417.1ZM991.101 413.1C990.201 413.3 989.301 413.6 988.301 413.7V411.3C989.201 411.1 990.101 410.8 991.101 410.7V413.1ZM991.101 408.9C990.201 409.2 989.301 409.3 988.301 409.6V407.2C989.201 406.9 990.101 406.8 991.101 406.5V408.9ZM991.101 404.9C990.201 405.2 989.301 405.4 988.301 405.6V403.2C989.201 402.9 990.101 402.7 991.101 402.5V404.9ZM991.101 400.8C990.201 401.1 989.301 401.3 988.301 401.6V399.2C989.201 398.9 990.101 398.7 991.101 398.4V400.8ZM991.101 396.7C990.201 397 989.301 397.2 988.301 397.5V395.1C989.201 394.8 990.101 394.6 991.101 394.3V396.7ZM991.101 392.6C990.201 392.9 989.301 393.2 988.301 393.5V391.1C989.201 390.8 990.101 390.5 991.101 390.2V392.6ZM991.101 388.5C990.201 388.8 989.301 389.1 988.301 389.4V387C989.201 386.7 990.101 386.4 991.101 386.1V388.5ZM991.101 384.4C990.201 384.8 989.301 385 988.301 385.4V383C989.201 382.6 990.101 382.4 991.101 382V384.4ZM991.101 380.3C990.201 380.7 989.301 381 988.301 381.4V379C989.201 378.6 990.101 378.3 991.101 377.9V380.3ZM996.401 416L993.401 416.6V414L996.401 413.4V416ZM996.401 411.8L993.401 412.5V410L996.401 409.3V411.8ZM996.401 407.6L993.401 408.3V405.7L996.401 405V407.6ZM996.401 403.4L993.401 404.2V401.6L996.401 400.8V403.4ZM996.401 399.3L993.401 400.1V397.5L996.401 396.7V399.3ZM996.401 395.1L993.401 396V393.4L996.401 392.5V395.1ZM996.401 390.9L993.401 391.9V389.3L996.401 388.3V390.9ZM996.401 386.7L993.401 387.7V385.1L996.401 384.1V386.7ZM996.401 382.6L993.401 383.6V381L996.401 379.9V382.6ZM996.401 378.4L993.401 379.5V376.9L996.401 375.8V378.4ZM999.501 412.5L996.701 411.9V409.2L999.501 409.9V412.5ZM999.501 408.3L996.701 407.7V405.1L999.501 405.7V408.3ZM999.501 404.2L996.701 403.5V400.9L999.501 401.6V404.2ZM999.501 400.1L996.701 399.3V396.7L999.501 397.5V400.1ZM999.501 396L996.701 395.2V392.6L999.501 393.4V396ZM999.501 391.9L996.701 391V388.4L999.501 389.3V391.9ZM999.501 387.7L996.701 386.8V384.2L999.501 385.1V387.7ZM999.501 383.6L996.701 382.6V380L999.501 381V383.6ZM999.501 379.5L996.701 378.5V375.9L999.501 376.9V379.5ZM1004.8 409.7C1003.9 409.4 1002.9 409.2 1002 409V406.6C1002.9 406.9 1003.8 407.1 1004.8 407.3V409.7ZM1004.8 405.6C1003.9 405.3 1002.9 405.1 1002 404.9V402.5C1002.9 402.8 1003.8 403.1 1004.8 403.2V405.6ZM1004.8 401.6C1003.9 401.3 1002.9 401.1 1002 400.8V398.4C1002.9 398.7 1003.8 398.9 1004.8 399.2V401.6ZM1004.8 397.5C1003.9 397.2 1002.9 397 1002 396.7V394.3C1002.9 394.6 1003.8 394.8 1004.8 395.1V397.5ZM1004.8 393.5C1003.9 393.2 1002.9 392.9 1002 392.6V390.2C1002.9 390.5 1003.8 390.8 1004.8 391.1V393.5ZM1004.8 389.4C1003.9 389 1002.9 388.8 1002 388.5V386.1C1002.9 386.5 1003.8 386.7 1004.8 387V389.4ZM1004.8 385.4C1003.9 385 1002.9 384.8 1002 384.4V382C1002.9 382.4 1003.8 382.6 1004.8 383V385.4ZM1004.8 381.4C1003.9 381 1003 380.7 1002 380.3V377.9C1002.9 378.3 1003.8 378.6 1004.8 379V381.4ZM1009 406.8C1008.2 406.5 1007.3 406.3 1006.4 406.1V403.9C1007.2 404.2 1008.1 404.4 1009 404.6V406.8ZM1009 402.8C1008.2 402.5 1007.3 402.3 1006.4 402.1V399.9C1007.2 400.2 1008.1 400.4 1009 400.6V402.8ZM1009 398.8C1008.2 398.5 1007.3 398.3 1006.4 398V395.8C1007.2 396.1 1008.1 396.3 1009 396.6V398.8ZM1009 394.8C1008.2 394.5 1007.3 394.3 1006.4 394V391.8C1007.2 392.1 1008.1 392.3 1009 392.6V394.8ZM1009 390.9C1008.2 390.6 1007.3 390.4 1006.4 390V387.8C1007.2 388.1 1008.1 388.3 1009 388.7V390.9ZM1009 386.9C1008.2 386.6 1007.3 386.3 1006.4 386V383.8C1007.2 384.1 1008.1 384.4 1009 384.7V386.9ZM1009 382.9C1008.2 382.5 1007.3 382.3 1006.4 381.9V379.7C1007.2 380.1 1008.1 380.3 1009 380.7V382.9Z" fill="white"/>
<path d="M1016.4 376.1L1015.2 373.4L1013 378.7H1017.5L1016.4 376.1Z" fill="white"/>
<path d="M972.401 376.1L971.301 373.4L969.101 378.7H973.601L972.401 376.1Z" fill="white"/>
<path d="M1011.6 379.6V408.9L1014.4 407.4H1011.8V406H1016.6V406.2L1018 405.5V379.6H1011.6ZM1016.5 403.2H1011.7V401.8H1016.5V403.2ZM1016.5 399.1H1011.7V397.7H1016.5V399.1ZM1016.5 395H1011.7V393.6H1016.5V395ZM1016.5 390.9H1011.7V389.5H1016.5V390.9ZM1016.5 386.8H1011.7V385.4H1016.5V386.8ZM1016.5 382.7H1011.7V381.3H1016.5V382.7Z" fill="white"/>
<defs>
<linearGradient id="paint0_linear_488_836" x1="1035.22" y1="408.918" x2="1067.62" y2="462.275" gradientUnits="userSpaceOnUse">
<stop stop-color="#7D1D1D"/>
<stop offset="0.2067" stop-color="#951212"/>
<stop offset="0.5054" stop-color="#AA1616"/>
<stop offset="0.845" stop-color="#DE2121"/>
<stop offset="0.9899" stop-color="#EF2525"/>
</linearGradient>
<linearGradient id="paint1_linear_488_836" x1="883.49" y1="434.288" x2="1204.04" y2="342.13" gradientUnits="userSpaceOnUse">
<stop offset="1.38522e-07" stop-color="#951212"/>
<stop offset="0.1829" stop-color="#B51D1D"/>
<stop offset="0.4868" stop-color="#B81919"/>
<stop offset="0.8722" stop-color="#E12222"/>
<stop offset="0.9899" stop-color="#EF2525"/>
</linearGradient>
<linearGradient id="paint2_linear_488_836" x1="972.825" y1="285.599" x2="972.825" y2="412.317" gradientUnits="userSpaceOnUse">
<stop stop-color="#D72020"/>
<stop offset="1" stop-color="#820F0F"/>
</linearGradient>
</defs>
</svg>
