<svg width="50" height="50" viewBox="0 0 50 50" fill="none" xmlns="http://www.w3.org/2000/svg">
<rect width="50" height="50" rx="10" fill="#9FCCFF"/>
<path d="M13 37L13.0005 32.4995C13.0008 30.0144 15.0154 28 17.5005 28H26.4998M37 30.7857L34 34M34 34L31 30.7857M34 34V25.75M31.75 13C33.5703 14.0203 34.75 15.6561 34.75 17.5C34.75 19.3439 33.5703 20.9797 31.75 22M28 17.5C28 19.9853 25.9853 22 23.5 22C21.0147 22 19 19.9853 19 17.5C19 15.0147 21.0147 13 23.5 13C25.9853 13 28 15.0147 28 17.5Z" stroke="white" stroke-width="2" stroke-linecap="round" stroke-linejoin="round"/>
</svg>
