<svg width="24" height="24" viewBox="0 0 24 24" fill="none" xmlns="http://www.w3.org/2000/svg">
<rect width="24" height="24" rx="12" fill="#83B8F6"/>
<path d="M10 18V13.4352C10 13.015 10.3582 12.6744 10.8 12.6744H13.2C13.6418 12.6744 14 13.015 14 13.4352V18M11.5364 6.14078L6.33638 9.65735C6.12534 9.80007 6 10.0311 6 10.2774V16.8588C6 17.4891 6.53726 18 7.2 18H16.8C17.4627 18 18 17.4891 18 16.8588V10.2774C18 10.0311 17.8747 9.80007 17.6636 9.65735L12.4636 6.14078C12.1861 5.95307 11.8139 5.95307 11.5364 6.14078Z" stroke="white" stroke-width="0.7" stroke-linecap="round"/>
</svg>
