<svg width="30" height="30" viewBox="0 0 30 30" fill="none" xmlns="http://www.w3.org/2000/svg">
<path d="M9.89705 25.1022C9.63486 25.1888 9.49255 25.4716 9.5792 25.7338C9.66585 25.996 9.94865 26.1383 10.2108 26.0517L10.0539 25.5769L9.89705 25.1022ZM17.3277 26.0577L17.2828 25.5597L17.2828 25.5597L17.3277 26.0577ZM21.692 25.0962L21.9098 25.5462L21.9098 25.5462L21.692 25.0962ZM25.8621 21.3351L25.4749 21.0188L25.4749 21.0188L25.8621 21.3351ZM23.01 18.9817L23.362 19.3368L23.362 19.3368L23.01 18.9817ZM21.0894 20.8859L21.4415 21.241L21.4415 21.241L21.0894 20.8859ZM15.873 21.2308C15.5968 21.2308 15.373 21.4546 15.373 21.7308C15.373 22.0069 15.5968 22.2308 15.873 22.2308V21.7308V21.2308ZM25.4187 18.7453L25.143 19.1624L25.143 19.1624L25.4187 18.7453ZM11.53 18.1144L11.7521 18.5624L11.7521 18.5624L11.53 18.1144ZM16.7501 17.641L16.8806 17.1583L16.8806 17.1583L16.7501 17.641ZM18.7886 18.1922L18.6581 18.6749L18.6581 18.6749L18.7886 18.1922ZM19.4345 20.6036L19.0825 20.2485L19.0825 20.2485L19.4345 20.6036ZM17.9455 21.3757C17.7494 21.5701 17.7481 21.8867 17.9425 22.0828C18.1369 22.2789 18.4535 22.2803 18.6496 22.0858L18.2976 21.7308L17.9455 21.3757ZM10.0539 25.5769L10.2108 26.0517C10.4778 25.9634 10.8814 25.9401 11.428 25.9788C11.9644 26.0167 12.5804 26.1089 13.2502 26.2132C14.5607 26.4173 16.0853 26.6719 17.3727 26.5557L17.3277 26.0577L17.2828 25.5597C16.1455 25.6624 14.7606 25.4363 13.4041 25.2251C12.7404 25.1217 12.0835 25.0226 11.4985 24.9813C10.9237 24.9406 10.3574 24.95 9.89705 25.1022L10.0539 25.5769ZM17.3277 26.0577L17.3727 26.5557C19.2775 26.3836 20.0778 26.4326 21.9098 25.5462L21.692 25.0962L21.4742 24.6461C19.835 25.4392 19.2245 25.3843 17.2828 25.5597L17.3277 26.0577ZM21.692 25.0962L21.9098 25.5462C23.5312 24.7618 25.201 22.9348 26.2494 21.6514L25.8621 21.3351L25.4749 21.0188C24.4217 22.3081 22.8745 23.9686 21.4742 24.6461L21.692 25.0962ZM23.01 18.9817L22.658 18.6267L20.7374 20.5308L21.0894 20.8859L21.4415 21.241L23.362 19.3368L23.01 18.9817ZM19.0321 21.7308V21.2308H15.873V21.7308V22.2308H19.0321V21.7308ZM21.0894 20.8859L20.7374 20.5308C20.2858 20.9785 19.6725 21.2308 19.0321 21.2308V21.7308V22.2308C19.935 22.2308 20.8017 21.8752 21.4415 21.241L21.0894 20.8859ZM25.4187 18.7453L25.6944 18.3282C24.7402 17.6975 23.47 17.8216 22.658 18.6267L23.01 18.9817L23.362 19.3368C23.8369 18.866 24.583 18.7922 25.143 19.1624L25.4187 18.7453ZM25.8621 21.3351L26.2494 21.6514C27.1214 20.5839 26.805 19.0622 25.6944 18.3282L25.4187 18.7453L25.143 19.1624C25.8017 19.5977 25.9412 20.448 25.4749 21.0188L25.8621 21.3351ZM4.71984 16.9231V17.4231H8.59919V16.9231V16.4231H4.71984V16.9231ZM9.56903 17.8846H9.06903V26.5385H9.56903H10.069V17.8846H9.56903ZM8.59919 27.5V27H4.71984V27.5V28H8.59919V27.5ZM3.75 26.5385H4.25V17.8846H3.75H3.25V26.5385H3.75ZM4.71984 27.5V27C4.45629 27 4.25 26.7893 4.25 26.5385H3.75H3.25C3.25 27.3497 3.91213 28 4.71984 28V27.5ZM9.56903 26.5385H9.06903C9.06903 26.7893 8.86274 27 8.59919 27V27.5V28C9.4069 28 10.069 27.3497 10.069 26.5385H9.56903ZM8.59919 16.9231V17.4231C8.86273 17.4231 9.06903 17.6338 9.06903 17.8846H9.56903H10.069C10.069 17.0734 9.4069 16.4231 8.59919 16.4231V16.9231ZM4.71984 16.9231V16.4231C3.91213 16.4231 3.25 17.0734 3.25 17.8846H3.75H4.25C4.25 17.6338 4.45629 17.4231 4.71984 17.4231V16.9231ZM10.0539 18.8462L10.276 19.2941L11.7521 18.5624L11.53 18.1144L11.308 17.6665L9.83188 18.3982L10.0539 18.8462ZM14.5661 17.4038V17.9038H14.9638V17.4038V16.9038H14.5661V17.4038ZM16.7501 17.641L16.6196 18.1237L18.6581 18.6749L18.7886 18.1922L18.9191 17.7095L16.8806 17.1583L16.7501 17.641ZM19.4345 20.6036L19.0825 20.2485L17.9455 21.3757L18.2976 21.7308L18.6496 22.0858L19.7865 20.9586L19.4345 20.6036ZM18.7886 18.1922L18.6581 18.6749C19.3679 18.8668 19.5956 19.7397 19.0825 20.2485L19.4345 20.6036L19.7865 20.9586C20.8531 19.9012 20.3646 18.1004 18.9191 17.7095L18.7886 18.1922ZM14.9638 17.4038V17.9038C15.5232 17.9038 16.08 17.9778 16.6196 18.1237L16.7501 17.641L16.8806 17.1583C16.2559 16.9894 15.6113 16.9038 14.9638 16.9038V17.4038ZM11.53 18.1144L11.7521 18.5624C12.6256 18.1294 13.5891 17.9038 14.5661 17.9038V17.4038V16.9038C13.4353 16.9038 12.3198 17.1649 11.308 17.6665L11.53 18.1144ZM22.1769 10.1923H21.6769C21.6769 12.0363 20.168 13.5385 18.2976 13.5385V14.0385V14.5385C20.7122 14.5385 22.6769 12.5967 22.6769 10.1923H22.1769ZM18.2976 14.0385V13.5385C16.4271 13.5385 14.9182 12.0363 14.9182 10.1923H14.4182H13.9182C13.9182 12.5967 15.883 14.5385 18.2976 14.5385V14.0385ZM14.4182 10.1923H14.9182C14.9182 8.34832 16.4271 6.84615 18.2976 6.84615V6.34615V5.84615C15.883 5.84615 13.9182 7.78795 13.9182 10.1923H14.4182ZM18.2976 6.34615V6.84615C20.168 6.84615 21.6769 8.34832 21.6769 10.1923H22.1769H22.6769C22.6769 7.78795 20.7122 5.84615 18.2976 5.84615V6.34615ZM14.4182 10.1923V9.69231C12.5478 9.69231 11.0389 8.19014 11.0389 6.34615H10.5389H10.0389C10.0389 8.75051 12.0036 10.6923 14.4182 10.6923V10.1923ZM10.5389 6.34615H11.0389C11.0389 4.50217 12.5478 3 14.4182 3V2.5V2C12.0036 2 10.0389 3.9418 10.0389 6.34615H10.5389ZM14.4182 2.5V3C16.2886 3 17.7976 4.50217 17.7976 6.34615H18.2976H18.7976C18.7976 3.9418 16.8328 2 14.4182 2V2.5Z" fill="#292929"/>
</svg>
